<mxfile host="app.diagrams.net" modified="2023-07-31T12:27:27.692Z" agent="Mozilla/5.0 (Windows NT 10.0; Win64; x64) AppleWebKit/537.36 (KHTML, like Gecko) Chrome/115.0.0.0 Safari/537.36" etag="e2L3MzzIlTK7_9lHycEd" version="21.6.6" type="device">
  <diagram name="Page-1" id="ik_fzok9voa5_NV9JT2w">
    <mxGraphModel dx="1376" dy="768" grid="1" gridSize="10" guides="1" tooltips="1" connect="1" arrows="1" fold="1" page="1" pageScale="1" pageWidth="850" pageHeight="1100" math="0" shadow="0">
      <root>
        <mxCell id="0" />
        <mxCell id="1" parent="0" />
        <mxCell id="9wP2wIX_d5uYI1rVPHEZ-1" value="Function: g_cc_ac_setFanSpeed&#xa;&#xa;&#xa;&#xa;Description:&#xa;    This function sets the fan speed. It can also be used by the AUTO module. this is&#xa;    checked through the boolean parameter AUTO_ON_OFF.&#xa;    Writes to PWMinput5 (the fan), the value recieved in fan_speed&#xa;&#xa;&#xa;&#xa;Parameters In:&#xa;    fan_speed : uint8&#xa;    AUTO_ON_OFF : bool &#xa;&#xa;&#xa;Parameters Out:&#xa;    None&#xa;&#xa;&#xa;&#xa;Return Value:&#xa;    None" style="text;whiteSpace=wrap;" vertex="1" parent="1">
          <mxGeometry x="400" y="20" width="450" height="360" as="geometry" />
        </mxCell>
        <mxCell id="9wP2wIX_d5uYI1rVPHEZ-3" style="edgeStyle=orthogonalEdgeStyle;rounded=0;orthogonalLoop=1;jettySize=auto;html=1;" edge="1" parent="1" source="9wP2wIX_d5uYI1rVPHEZ-2" target="9wP2wIX_d5uYI1rVPHEZ-4">
          <mxGeometry relative="1" as="geometry">
            <mxPoint x="190" y="230" as="targetPoint" />
          </mxGeometry>
        </mxCell>
        <mxCell id="9wP2wIX_d5uYI1rVPHEZ-2" value="" style="ellipse;whiteSpace=wrap;html=1;" vertex="1" parent="1">
          <mxGeometry x="130" y="90" width="120" height="80" as="geometry" />
        </mxCell>
        <mxCell id="9wP2wIX_d5uYI1rVPHEZ-5" style="edgeStyle=orthogonalEdgeStyle;rounded=0;orthogonalLoop=1;jettySize=auto;html=1;" edge="1" parent="1" source="9wP2wIX_d5uYI1rVPHEZ-4" target="9wP2wIX_d5uYI1rVPHEZ-6">
          <mxGeometry relative="1" as="geometry">
            <mxPoint x="190" y="350" as="targetPoint" />
          </mxGeometry>
        </mxCell>
        <mxCell id="9wP2wIX_d5uYI1rVPHEZ-4" value="call&amp;nbsp;g_cc_ac_setFanSpeed" style="rounded=1;whiteSpace=wrap;html=1;" vertex="1" parent="1">
          <mxGeometry x="95" y="220" width="190" height="60" as="geometry" />
        </mxCell>
        <mxCell id="9wP2wIX_d5uYI1rVPHEZ-7" value="yes" style="edgeStyle=orthogonalEdgeStyle;rounded=0;orthogonalLoop=1;jettySize=auto;html=1;" edge="1" parent="1" source="9wP2wIX_d5uYI1rVPHEZ-6" target="9wP2wIX_d5uYI1rVPHEZ-8">
          <mxGeometry relative="1" as="geometry">
            <mxPoint x="380" y="445" as="targetPoint" />
          </mxGeometry>
        </mxCell>
        <mxCell id="9wP2wIX_d5uYI1rVPHEZ-11" value="no" style="edgeStyle=orthogonalEdgeStyle;rounded=0;orthogonalLoop=1;jettySize=auto;html=1;entryX=0.5;entryY=0;entryDx=0;entryDy=0;" edge="1" parent="1" source="9wP2wIX_d5uYI1rVPHEZ-6" target="9wP2wIX_d5uYI1rVPHEZ-10">
          <mxGeometry relative="1" as="geometry" />
        </mxCell>
        <mxCell id="9wP2wIX_d5uYI1rVPHEZ-6" value="if AC_ON_OFF is false and AUTO_ON_OFF is flase" style="rhombus;whiteSpace=wrap;html=1;" vertex="1" parent="1">
          <mxGeometry x="100" y="370" width="180" height="150" as="geometry" />
        </mxCell>
        <mxCell id="9wP2wIX_d5uYI1rVPHEZ-9" style="edgeStyle=orthogonalEdgeStyle;rounded=0;orthogonalLoop=1;jettySize=auto;html=1;" edge="1" parent="1" source="9wP2wIX_d5uYI1rVPHEZ-8" target="9wP2wIX_d5uYI1rVPHEZ-10">
          <mxGeometry relative="1" as="geometry">
            <mxPoint x="440" y="650" as="targetPoint" />
            <Array as="points">
              <mxPoint x="440" y="640" />
            </Array>
          </mxGeometry>
        </mxCell>
        <mxCell id="9wP2wIX_d5uYI1rVPHEZ-8" value="fan_speed gets assigned FAN_OFF" style="rounded=1;whiteSpace=wrap;html=1;" vertex="1" parent="1">
          <mxGeometry x="380" y="415" width="120" height="60" as="geometry" />
        </mxCell>
        <mxCell id="9wP2wIX_d5uYI1rVPHEZ-12" style="edgeStyle=orthogonalEdgeStyle;rounded=0;orthogonalLoop=1;jettySize=auto;html=1;" edge="1" parent="1" source="9wP2wIX_d5uYI1rVPHEZ-10" target="9wP2wIX_d5uYI1rVPHEZ-13">
          <mxGeometry relative="1" as="geometry">
            <mxPoint x="190" y="740" as="targetPoint" />
          </mxGeometry>
        </mxCell>
        <mxCell id="9wP2wIX_d5uYI1rVPHEZ-10" value="" style="rhombus;whiteSpace=wrap;html=1;" vertex="1" parent="1">
          <mxGeometry x="150" y="600" width="80" height="80" as="geometry" />
        </mxCell>
        <mxCell id="9wP2wIX_d5uYI1rVPHEZ-14" style="edgeStyle=orthogonalEdgeStyle;rounded=0;orthogonalLoop=1;jettySize=auto;html=1;" edge="1" parent="1" source="9wP2wIX_d5uYI1rVPHEZ-13" target="9wP2wIX_d5uYI1rVPHEZ-15">
          <mxGeometry relative="1" as="geometry">
            <mxPoint x="190" y="830" as="targetPoint" />
          </mxGeometry>
        </mxCell>
        <mxCell id="9wP2wIX_d5uYI1rVPHEZ-13" value="pwmData of input 5 gets assigned fan_speed" style="rounded=1;whiteSpace=wrap;html=1;" vertex="1" parent="1">
          <mxGeometry x="130" y="710" width="120" height="60" as="geometry" />
        </mxCell>
        <mxCell id="9wP2wIX_d5uYI1rVPHEZ-16" style="edgeStyle=orthogonalEdgeStyle;rounded=0;orthogonalLoop=1;jettySize=auto;html=1;" edge="1" parent="1" source="9wP2wIX_d5uYI1rVPHEZ-15" target="9wP2wIX_d5uYI1rVPHEZ-17">
          <mxGeometry relative="1" as="geometry">
            <mxPoint x="190" y="940" as="targetPoint" />
          </mxGeometry>
        </mxCell>
        <mxCell id="9wP2wIX_d5uYI1rVPHEZ-15" value="print assigned fan_speed" style="rounded=1;whiteSpace=wrap;html=1;" vertex="1" parent="1">
          <mxGeometry x="130" y="800" width="120" height="60" as="geometry" />
        </mxCell>
        <mxCell id="9wP2wIX_d5uYI1rVPHEZ-17" value="" style="ellipse;whiteSpace=wrap;html=1;labelBackgroundColor=default;" vertex="1" parent="1">
          <mxGeometry x="130" y="900" width="120" height="80" as="geometry" />
        </mxCell>
      </root>
    </mxGraphModel>
  </diagram>
</mxfile>
